# Blender 4.4.3
# www.blender.org
mtllib obj_with_uv_cords.mtl
o mesh0
v -0.005000 0.005000 -0.005000
v 0.005000 -0.005000 0.005000
v -0.005000 -0.005000 0.005000
vn -0.0000 -0.7071 -0.7071
vt 0.353553 0.500000
vt 0.000000 0.000000
vt 0.353553 0.000000
s 1
usemtl 1.000000_0.000000_0.000000_0.000000_0.000000
f 1/1/1 2/2/1 3/3/1
o mesh1
v 0.005000 -0.005000 0.005000
v -0.005000 -0.005000 0.005000
v 0.005000 0.005000 0.005000
v -0.005000 0.005000 0.005000
vn -0.0000 -0.0000 1.0000
vt 0.000000 0.500000
vt 0.353553 0.500000
vt 0.353553 0.853553
vt 0.000000 0.853553
s 1
usemtl 1.000000_0.000000_0.000000_0.000000_0.000000
f 4/4/2 6/5/2 7/6/2
f 7/6/2 5/7/2 4/4/2
o mesh2
v -0.005000 0.005000 -0.005000
v -0.005000 -0.005000 0.005000
v -0.005000 0.005000 0.005000
vn -1.0000 -0.0000 -0.0000
vt 0.353553 1.000000
vt 0.353553 0.500000
vt 0.603553 0.750000
s 1
usemtl 1.000000_0.000000_0.000000_0.000000_0.000000
f 8/8/3 9/9/3 10/10/3
o mesh3
v -0.005000 0.005000 -0.005000
v 0.005000 0.005000 0.005000
v -0.005000 0.005000 0.005000
vn -0.0000 1.0000 -0.0000
vt 0.957107 -0.000000
vt 0.957107 0.500000
vt 0.707107 0.250000
s 1
usemtl 1.000000_0.000000_0.000000_0.000000_0.000000
f 12/11/4 11/12/4 13/13/4
o mesh4
v -0.005000 0.005000 -0.005000
v 0.005000 -0.005000 0.005000
v 0.005000 0.005000 0.005000
vn 0.7071 -0.0000 -0.7071
vt 0.353553 0.000000
vt 0.707107 0.000000
vt 0.353553 0.500000
s 1
usemtl 1.000000_0.000000_0.000000_0.000000_0.000000
f 16/14/5 15/15/5 14/16/5
